<?xml version="1.0" encoding="utf-8"?>
<!-- Generator: Adobe Illustrator 23.0.1, SVG Export Plug-In . SVG Version: 6.00 Build 0)  -->
<svg version="1.1" id="Layer_1" xmlns="http://www.w3.org/2000/svg" xmlns:xlink="http://www.w3.org/1999/xlink" x="0px" y="0px"
	 viewBox="0 0 35 35" style="enable-background:new 0 0 35 35;fill:#6f53a7;" xml:space="preserve">
<path d="M33.3,18.4c0-8.8-7.1-15.9-15.9-15.9C8.6,2.4,1.4,9.6,1.4,18.4c0,8.7,7.1,15.9,15.9,15.9C26.2,34.3,33.3,27.2,33.3,18.4z
	 M17.4,4.3c7.8,0,14.1,6.3,14.1,14.1c0,2.8-0.8,5.6-2.4,7.9c-6.3-6.8-17-6.8-23.3,0c-1.6-2.3-2.4-5-2.4-7.9
	C3.3,10.6,9.6,4.3,17.4,4.3z M6.9,27.8c5.6-6.3,15.4-6.3,21,0C22.3,34,12.5,34,6.9,27.8z"/>
<path d="M17.4,19.3c3.1,0,5.6-2.5,5.6-5.6v-1.9c0-3.1-2.5-5.6-5.6-5.6s-5.6,2.5-5.6,5.6v1.9C11.8,16.8,14.3,19.3,17.4,19.3z
	 M13.6,11.8c0-2.1,1.7-3.7,3.7-3.7s3.7,1.7,3.7,3.7v1.9c0,2.1-1.7,3.7-3.7,3.7s-3.7-1.7-3.7-3.7V11.8z"/>
</svg>
